<svg width="32" height="32" viewBox="0 0 32 32" fill="none" xmlns="http://www.w3.org/2000/svg">
<path fill-rule="evenodd" clip-rule="evenodd" d="M7.37899 15.4231C7.37899 10.9827 10.9827 7.37899 15.4231 7.37899C19.8634 7.37899 23.4672 10.9827 23.4672 15.4231C23.4672 19.8634 19.8634 23.4672 15.4231 23.4672C10.9827 23.4672 7.37899 19.8634 7.37899 15.4231ZM15.4231 6C10.2197 6 6 10.2197 6 15.4231C6 20.6264 10.2197 24.8461 15.4231 24.8461C20.6264 24.8461 24.8461 20.6264 24.8461 15.4231C24.8461 10.2197 20.6264 6 15.4231 6ZM23.7246 22.7501C23.458 22.4835 23.0167 22.4835 22.7501 22.7501C22.4835 23.0167 22.4835 23.458 22.7501 23.7246L24.5887 25.5632C24.8553 25.8298 25.2966 25.8298 25.5632 25.5632C25.8298 25.2966 25.8298 24.8553 25.5632 24.5887L23.7246 22.7501Z" fill="#F54646"/>
</svg>
